# xmcd CD database file
#
# Track frame offsets:
#	150
#	24804
#	40217
#
# Disc length: 808 seconds
#
# Revision: 1
# Processed by: cddbd v1.5.1PL0 Copyright (c) Steve Scherf et al.
# Submitted via: CDex 1.51
#
DISCID=16032603
DTITLE=NON'SHEEP - 枯ら咲き
DYEAR=2004
DGENRE=Rock
TTITLE0=枯ら咲き
TTITLE1=instrumental
TTITLE2=陰々と足音
EXTD=YEAR: 2004
EXTT0=
EXTT1=
EXTT2=
PLAYORDER=
